# xmcd
#
# Track frame offsets:
#	150
#	18396
#	35151
#	51700
#	65628
#	82009
#	99712
#	116919
#	135840
#	152003
#	168526
#	188321
#
# Disc length: 2717 seconds
#
# Revision: 1
# Processed by: cddbd v1.5.2PL0 Copyright (c) Steve Scherf et al.
# Submitted via: audiograbber 1.83.01
#
DISCID=a50a9b0c
DTITLE=Blake Shelton - Bringing Back The Sunshine
DYEAR=2014
DGENRE=Country
TTITLE0=Bringing Back the Sunshine
TTITLE1=Neon Light
TTITLE2=Lonely Tonight (feat. Ashley Monroe)
TTITLE3=Gonna
TTITLE4=A Girl
TTITLE5=Sangria
TTITLE6=Buzzin' (feat. RaeLynn)
TTITLE7=Just South of Heaven
TTITLE8=I Need My Girl
TTITLE9=Good Country Song
TTITLE10=Anyone Else
TTITLE11=Just Gettin' Started
EXTD=
EXTT0=
EXTT1=
EXTT2=
EXTT3=
EXTT4=
EXTT5=
EXTT6=
EXTT7=
EXTT8=
EXTT9=
EXTT10=
EXTT11=
PLAYORDER=
